{
    "asset" : {
        "generator" : "Khronos glTF Blender I/O v1.6.16",
        "version" : "2.0"
    },
    "extensionsUsed" : [
        "KHR_materials_unlit"
    ],
    "scene" : 0,
    "scenes" : [
        {
            "name" : "Scene",
            "nodes" : [
                0
            ]
        }
    ],
    "nodes" : [
        {
            "mesh" : 0,
            "name" : "Desk"
        }
    ],
    "materials" : [
        {
            "doubleSided" : true,
            "extensions" : {
                "KHR_materials_unlit" : {}
            },
            "name" : "DeskWood",
            "pbrMetallicRoughness" : {
                "baseColorTexture" : {
                    "index" : 0
                },
                "metallicFactor" : 0,
                "roughnessFactor" : 0.9
            }
        }
    ],
    "meshes" : [
        {
            "name" : "Desk",
            "primitives" : [
                {
                    "attributes" : {
                        "POSITION" : 0,
                        "NORMAL" : 1,
                        "TEXCOORD_0" : 2
                    },
                    "indices" : 3,
                    "material" : 0
                }
            ]
        }
    ],
    "textures" : [
        {
            "sampler" : 0,
            "source" : 0
        }
    ],
    "images" : [
        {
            "bufferView" : 4,
            "mimeType" : "image/png",
            "name" : "DeskTexture"
        }
    ],
    "accessors" : [
        {
            "bufferView" : 0,
            "componentType" : 5126,
            "count" : 732,
            "max" : [
                0.5049999952316284,
                0.3896627128124237,
                0.23229998350143433
            ],
            "min" : [
                -0.6008151173591614,
                -0.35999998450279236,
                -0.35209816694259644
            ],
            "type" : "VEC3"
        },
        {
            "bufferView" : 1,
            "componentType" : 5126,
            "count" : 732,
            "type" : "VEC3"
        },
        {
            "bufferView" : 2,
            "componentType" : 5126,
            "count" : 732,
            "type" : "VEC2"
        },
        {
            "bufferView" : 3,
            "componentType" : 5123,
            "count" : 2100,
            "type" : "SCALAR"
        }
    ],
    "bufferViews" : [
        {
            "buffer" : 0,
            "byteLength" : 8784,
            "byteOffset" : 0
        },
        {
            "buffer" : 0,
            "byteLength" : 8784,
            "byteOffset" : 8784
        },
        {
            "buffer" : 0,
            "byteLength" : 5856,
            "byteOffset" : 17568
        },
        {
            "buffer" : 0,
            "byteLength" : 4200,
            "byteOffset" : 23424
        },
        {
            "buffer" : 0,
            "byteLength" : 2534746,
            "byteOffset" : 27624
        }
    ],
    "samplers" : [
        {
            "magFilter" : 9729,
            "minFilter" : 9987
        }
    ],
    "buffers" : [
        {
            "byteLength" : 2562372,
            "uri" : "data:application/octet-stream;base64,"
        }
    ]
}
