{
    "asset" : {
        "generator" : "Khronos glTF Blender I/O v1.6.16",
        "version" : "2.0"
    },
    "scene" : 0,
    "scenes" : [
        {
            "name" : "Scene",
            "nodes" : [
                0
            ]
        }
    ],
    "nodes" : [
        {
            "mesh" : 0,
            "name" : "Pen"
        }
    ],
    "meshes" : [
        {
            "name" : "Pen",
            "primitives" : [
                {
                    "attributes" : {
                        "POSITION" : 0,
                        "NORMAL" : 1,
                        "TEXCOORD_0" : 2
                    },
                    "indices" : 3
                }
            ]
        }
    ],
    "accessors" : [
        {
            "bufferView" : 0,
            "componentType" : 5126,
            "count" : 151,
            "max" : [
                0.09078259766101837,
                0.6271005868911743,
                0.09078259766101837
            ],
            "min" : [
                -0.09078259766101837,
                -0.6271005868911743,
                -0.09078259766101837
            ],
            "type" : "VEC3"
        },
        {
            "bufferView" : 1,
            "componentType" : 5126,
            "count" : 151,
            "type" : "VEC3"
        },
        {
            "bufferView" : 2,
            "componentType" : 5126,
            "count" : 151,
            "type" : "VEC2"
        },
        {
            "bufferView" : 3,
            "componentType" : 5123,
            "count" : 672,
            "type" : "SCALAR"
        }
    ],
    "bufferViews" : [
        {
            "buffer" : 0,
            "byteLength" : 1812,
            "byteOffset" : 0
        },
        {
            "buffer" : 0,
            "byteLength" : 1812,
            "byteOffset" : 1812
        },
        {
            "buffer" : 0,
            "byteLength" : 1208,
            "byteOffset" : 3624
        },
        {
            "buffer" : 0,
            "byteLength" : 1344,
            "byteOffset" : 4832
        }
    ],
    "buffers" : [
        {
            "byteLength" : 6176,
            "uri" : "data:application/octet-stream;base64,"
        }
    ]
}
